<svg width="158" height="18" viewBox="0 0 158 18" fill="none" xmlns="http://www.w3.org/2000/svg">
<path d="M6.102 14V12.848C5.358 12.812 4.644 12.656 3.96 12.38C3.288 12.092 2.688 11.702 2.16 11.21C1.644 10.718 1.236 10.136 0.936 9.464C0.636 8.792 0.486 8.042 0.486 7.214C0.486 6.35 0.642 5.576 0.954 4.892C1.278 4.208 1.704 3.626 2.232 3.146C2.76 2.666 3.354 2.294 4.014 2.03C4.686 1.754 5.382 1.598 6.102 1.562V0.553999H8.892V1.562C9.612 1.598 10.308 1.754 10.98 2.03C11.652 2.306 12.252 2.684 12.78 3.164C13.308 3.644 13.728 4.226 14.04 4.91C14.352 5.594 14.508 6.362 14.508 7.214C14.508 8.042 14.352 8.798 14.04 9.482C13.74 10.154 13.326 10.736 12.798 11.228C12.27 11.708 11.67 12.092 10.998 12.38C10.326 12.656 9.624 12.812 8.892 12.848V14H6.102ZM6.174 10.49V3.92C5.682 3.956 5.226 4.112 4.806 4.388C4.398 4.652 4.068 5.018 3.816 5.486C3.564 5.954 3.438 6.53 3.438 7.214C3.438 7.718 3.51 8.168 3.654 8.564C3.81 8.96 4.014 9.296 4.266 9.572C4.53 9.836 4.824 10.052 5.148 10.22C5.484 10.376 5.826 10.466 6.174 10.49ZM8.82 10.49C9.3 10.442 9.744 10.286 10.152 10.022C10.572 9.758 10.908 9.392 11.16 8.924C11.424 8.456 11.556 7.886 11.556 7.214C11.556 6.71 11.484 6.266 11.34 5.882C11.196 5.486 10.998 5.15 10.746 4.874C10.494 4.586 10.2 4.364 9.864 4.208C9.54 4.04 9.192 3.944 8.82 3.92V10.49ZM15.5543 14V4.55H18.4343V10.166L22.0883 4.55H24.7163V14H21.8363V8.546L18.2003 14H15.5543ZM28.4624 14V7.07H25.6004V4.55H34.2044V7.07H31.3424V14H28.4624ZM35.0842 14V4.55H37.9642V7.97H41.1862V4.55H44.0662V14H41.1862V10.346H37.9642V14H35.0842ZM50.2282 14.18C49.4242 14.18 48.7102 14.054 48.0862 13.802C47.4622 13.538 46.9282 13.184 46.4842 12.74C46.0522 12.296 45.7222 11.786 45.4942 11.21C45.2662 10.622 45.1522 10.01 45.1522 9.374C45.1522 8.462 45.3502 7.634 45.7462 6.89C46.1542 6.134 46.7362 5.528 47.4922 5.072C48.2482 4.604 49.1602 4.37 50.2282 4.37C51.2962 4.37 52.2022 4.598 52.9462 5.054C53.7022 5.51 54.2782 6.11 54.6742 6.854C55.0702 7.586 55.2682 8.384 55.2682 9.248C55.2682 9.416 55.2562 9.584 55.2322 9.752C55.2202 9.908 55.2082 10.046 55.1962 10.166H48.2122C48.2482 10.586 48.3622 10.94 48.5542 11.228C48.7582 11.516 49.0162 11.738 49.3282 11.894C49.6402 12.038 49.9702 12.11 50.3182 12.11C50.7502 12.11 51.1522 12.008 51.5242 11.804C51.9082 11.6 52.1722 11.324 52.3162 10.976L54.7642 11.66C54.5242 12.152 54.1822 12.59 53.7382 12.974C53.3062 13.346 52.7902 13.64 52.1902 13.856C51.6022 14.072 50.9482 14.18 50.2282 14.18ZM48.1402 8.402H52.2442C52.1962 8.006 52.0822 7.664 51.9022 7.376C51.7222 7.076 51.4822 6.848 51.1822 6.692C50.8822 6.524 50.5522 6.44 50.1922 6.44C49.8202 6.44 49.4842 6.524 49.1842 6.692C48.8962 6.848 48.6622 7.076 48.4822 7.376C48.3022 7.664 48.1882 8.006 48.1402 8.402ZM60.7314 14.18C59.9274 14.18 59.2134 14.048 58.5894 13.784C57.9654 13.52 57.4314 13.16 56.9874 12.704C56.5554 12.248 56.2254 11.726 55.9974 11.138C55.7694 10.55 55.6554 9.926 55.6554 9.266C55.6554 8.402 55.8534 7.598 56.2494 6.854C56.6574 6.11 57.2394 5.51 57.9954 5.054C58.7514 4.598 59.6634 4.37 60.7314 4.37C61.8114 4.37 62.7234 4.604 63.4674 5.072C64.2234 5.528 64.7874 6.128 65.1594 6.872L62.3514 7.718C62.1714 7.43 61.9374 7.208 61.6494 7.052C61.3734 6.896 61.0614 6.818 60.7134 6.818C60.3174 6.818 59.9574 6.92 59.6334 7.124C59.3214 7.328 59.0694 7.61 58.8774 7.97C58.6974 8.33 58.6074 8.762 58.6074 9.266C58.6074 9.758 58.7034 10.19 58.8954 10.562C59.0874 10.934 59.3394 11.228 59.6514 11.444C59.9634 11.648 60.3174 11.75 60.7134 11.75C60.9534 11.75 61.1754 11.714 61.3794 11.642C61.5954 11.558 61.7874 11.444 61.9554 11.3C62.1354 11.156 62.2734 10.994 62.3694 10.814L65.1774 11.678C64.9494 12.158 64.6194 12.59 64.1874 12.974C63.7674 13.346 63.2694 13.64 62.6934 13.856C62.1174 14.072 61.4634 14.18 60.7314 14.18ZM66.1011 10.346V7.754H71.6451V10.346H66.1011ZM78.0893 14.18C76.4453 14.18 75.1913 13.7 74.3273 12.74C73.4753 11.768 73.0493 10.322 73.0493 8.402C73.0493 7.274 73.1513 6.32 73.3553 5.54C73.5593 4.748 73.8653 4.094 74.2733 3.578C74.6813 3.05 75.1973 2.63 75.8213 2.318C76.4453 1.994 77.1773 1.748 78.0173 1.58L82.0853 0.661999L82.1213 2.93L78.0353 3.92C77.4953 4.064 77.0153 4.274 76.5953 4.55C76.1753 4.814 75.8333 5.156 75.5693 5.576C75.3173 5.996 75.1613 6.518 75.1013 7.142C75.4853 6.578 75.9893 6.128 76.6133 5.792C77.2373 5.456 78.0053 5.288 78.9173 5.288C79.7333 5.288 80.4593 5.468 81.0953 5.828C81.7313 6.188 82.2293 6.686 82.5893 7.322C82.9493 7.946 83.1293 8.672 83.1293 9.5C83.1293 10.388 82.9373 11.186 82.5533 11.894C82.1693 12.602 81.5993 13.16 80.8433 13.568C80.0993 13.976 79.1813 14.18 78.0893 14.18ZM78.0893 11.75C78.7253 11.75 79.2293 11.558 79.6013 11.174C79.9853 10.79 80.1773 10.28 80.1773 9.644C80.1773 9.044 79.9853 8.552 79.6013 8.168C79.2293 7.772 78.7253 7.574 78.0893 7.574C77.6933 7.574 77.3393 7.658 77.0273 7.826C76.7153 7.994 76.4633 8.234 76.2713 8.546C76.0913 8.858 76.0013 9.224 76.0013 9.644C76.0013 10.064 76.0853 10.436 76.2533 10.76C76.4333 11.072 76.6793 11.318 76.9913 11.498C77.3033 11.666 77.6693 11.75 78.0893 11.75ZM90.1661 14.18C89.4581 14.18 88.8401 14.03 88.3121 13.73C87.7841 13.418 87.3701 12.998 87.0701 12.47V17.834H84.1901V4.55H86.6921V6.08C87.0401 5.54 87.4781 5.12 88.0061 4.82C88.5341 4.52 89.1521 4.37 89.8601 4.37C90.4961 4.37 91.0781 4.496 91.6061 4.748C92.1461 5 92.6141 5.348 93.0101 5.792C93.4061 6.236 93.7121 6.752 93.9281 7.34C94.1441 7.928 94.2521 8.564 94.2521 9.248C94.2521 10.184 94.0781 11.024 93.7301 11.768C93.3821 12.512 92.8961 13.1 92.2721 13.532C91.6601 13.964 90.9581 14.18 90.1661 14.18ZM89.1941 11.75C89.5061 11.75 89.7881 11.684 90.0401 11.552C90.3041 11.408 90.5321 11.222 90.7241 10.994C90.9161 10.766 91.0601 10.502 91.1561 10.202C91.2641 9.89 91.3181 9.566 91.3181 9.23C91.3181 8.882 91.2581 8.564 91.1381 8.276C91.0301 7.988 90.8741 7.736 90.6701 7.52C90.4661 7.292 90.2261 7.118 89.9501 6.998C89.6741 6.878 89.3741 6.818 89.0501 6.818C88.8581 6.818 88.6601 6.848 88.4561 6.908C88.2641 6.968 88.0781 7.058 87.8981 7.178C87.7301 7.286 87.5741 7.418 87.4301 7.574C87.2861 7.73 87.1661 7.91 87.0701 8.114V10.058C87.2021 10.382 87.3761 10.67 87.5921 10.922C87.8081 11.174 88.0541 11.378 88.3301 11.534C88.6061 11.678 88.8941 11.75 89.1941 11.75ZM94.7498 11.174C94.7498 10.55 94.9238 10.004 95.2718 9.536C95.6198 9.068 96.0998 8.702 96.7118 8.438C97.3238 8.162 98.0258 8.024 98.8178 8.024C99.2018 8.024 99.5798 8.06 99.9518 8.132C100.324 8.192 100.648 8.282 100.924 8.402V7.988C100.924 7.472 100.768 7.076 100.456 6.8C100.144 6.524 99.6698 6.386 99.0338 6.386C98.5058 6.386 98.0078 6.476 97.5398 6.656C97.0838 6.836 96.5978 7.094 96.0818 7.43L95.2178 5.594C95.8418 5.186 96.4898 4.88 97.1618 4.676C97.8458 4.472 98.5658 4.37 99.3218 4.37C100.738 4.37 101.836 4.712 102.616 5.396C103.408 6.068 103.804 7.046 103.804 8.33V10.796C103.804 11.084 103.846 11.288 103.93 11.408C104.026 11.516 104.188 11.582 104.416 11.606V14C104.176 14.048 103.948 14.084 103.732 14.108C103.528 14.132 103.348 14.144 103.192 14.144C102.652 14.144 102.238 14.036 101.95 13.82C101.674 13.604 101.5 13.31 101.428 12.938L101.374 12.524C100.954 13.064 100.45 13.478 99.8618 13.766C99.2858 14.042 98.6798 14.18 98.0438 14.18C97.4198 14.18 96.8558 14.048 96.3518 13.784C95.8598 13.52 95.4698 13.16 95.1818 12.704C94.8938 12.248 94.7498 11.738 94.7498 11.174ZM100.474 11.534C100.606 11.426 100.714 11.306 100.798 11.174C100.882 11.042 100.924 10.916 100.924 10.796V9.95C100.684 9.854 100.414 9.782 100.114 9.734C99.8258 9.674 99.5558 9.644 99.3038 9.644C98.7758 9.644 98.3378 9.764 97.9898 10.004C97.6418 10.232 97.4678 10.538 97.4678 10.922C97.4678 11.138 97.5278 11.336 97.6478 11.516C97.7678 11.696 97.9298 11.84 98.1338 11.948C98.3498 12.056 98.6018 12.11 98.8898 12.11C99.1778 12.11 99.4658 12.056 99.7538 11.948C100.042 11.84 100.282 11.702 100.474 11.534ZM110.049 14.18C109.245 14.18 108.531 14.048 107.907 13.784C107.283 13.52 106.749 13.16 106.305 12.704C105.873 12.248 105.543 11.726 105.315 11.138C105.087 10.55 104.973 9.926 104.973 9.266C104.973 8.402 105.171 7.598 105.567 6.854C105.975 6.11 106.557 5.51 107.313 5.054C108.069 4.598 108.981 4.37 110.049 4.37C111.129 4.37 112.041 4.604 112.785 5.072C113.541 5.528 114.105 6.128 114.477 6.872L111.669 7.718C111.489 7.43 111.255 7.208 110.967 7.052C110.691 6.896 110.379 6.818 110.031 6.818C109.635 6.818 109.275 6.92 108.951 7.124C108.639 7.328 108.387 7.61 108.195 7.97C108.015 8.33 107.925 8.762 107.925 9.266C107.925 9.758 108.021 10.19 108.213 10.562C108.405 10.934 108.657 11.228 108.969 11.444C109.281 11.648 109.635 11.75 110.031 11.75C110.271 11.75 110.493 11.714 110.697 11.642C110.913 11.558 111.105 11.444 111.273 11.3C111.453 11.156 111.591 10.994 111.687 10.814L114.495 11.678C114.267 12.158 113.937 12.59 113.505 12.974C113.085 13.346 112.587 13.64 112.011 13.856C111.435 14.072 110.781 14.18 110.049 14.18ZM114.824 14.144V11.588C115.112 11.588 115.364 11.528 115.58 11.408C115.796 11.288 115.982 11.09 116.138 10.814C116.306 10.538 116.438 10.142 116.534 9.626C116.63 9.11 116.696 8.45 116.732 7.646L116.858 4.55H124.328V14H121.448V7.07H119.414L119.378 7.952C119.318 9.152 119.186 10.154 118.982 10.958C118.79 11.75 118.508 12.38 118.136 12.848C117.764 13.304 117.308 13.634 116.768 13.838C116.228 14.042 115.58 14.144 114.824 14.144ZM130.493 14.18C129.689 14.18 128.975 14.054 128.351 13.802C127.727 13.538 127.193 13.184 126.749 12.74C126.317 12.296 125.987 11.786 125.759 11.21C125.531 10.622 125.417 10.01 125.417 9.374C125.417 8.462 125.615 7.634 126.011 6.89C126.419 6.134 127.001 5.528 127.757 5.072C128.513 4.604 129.425 4.37 130.493 4.37C131.561 4.37 132.467 4.598 133.211 5.054C133.967 5.51 134.543 6.11 134.939 6.854C135.335 7.586 135.533 8.384 135.533 9.248C135.533 9.416 135.521 9.584 135.497 9.752C135.485 9.908 135.473 10.046 135.461 10.166H128.477C128.513 10.586 128.627 10.94 128.819 11.228C129.023 11.516 129.281 11.738 129.593 11.894C129.905 12.038 130.235 12.11 130.583 12.11C131.015 12.11 131.417 12.008 131.789 11.804C132.173 11.6 132.437 11.324 132.581 10.976L135.029 11.66C134.789 12.152 134.447 12.59 134.003 12.974C133.571 13.346 133.055 13.64 132.455 13.856C131.867 14.072 131.213 14.18 130.493 14.18ZM128.405 8.402H132.509C132.461 8.006 132.347 7.664 132.167 7.376C131.987 7.076 131.747 6.848 131.447 6.692C131.147 6.524 130.817 6.44 130.457 6.44C130.085 6.44 129.749 6.524 129.449 6.692C129.161 6.848 128.927 7.076 128.747 7.376C128.567 7.664 128.453 8.006 128.405 8.402ZM138.602 14V7.07H135.74V4.55H144.344V7.07H141.482V14H138.602ZM145.224 14V4.55H148.104V7.376H149.634C150.774 7.376 151.65 7.676 152.262 8.276C152.886 8.864 153.198 9.638 153.198 10.598C153.198 11.27 153.066 11.864 152.802 12.38C152.55 12.896 152.172 13.298 151.668 13.586C151.164 13.862 150.546 14 149.814 14H145.224ZM148.104 11.822H149.346C149.61 11.822 149.826 11.774 149.994 11.678C150.174 11.57 150.306 11.426 150.39 11.246C150.474 11.054 150.516 10.844 150.516 10.616C150.516 10.388 150.474 10.19 150.39 10.022C150.306 9.842 150.174 9.698 149.994 9.59C149.826 9.482 149.604 9.428 149.328 9.428H148.104V11.822ZM154.62 14V4.55H157.5V14H154.62Z" fill="black"/>
</svg>
